<svg width="32" height="32" viewBox="0 0 32 32" fill="none" xmlns="http://www.w3.org/2000/svg">
<rect width="32" height="32" rx="6" fill="black"/>
<path d="M3 9V18.3333H5.66667V9H3ZM8.33333 9V11.6667H13.6667V14.3333H11V18.3333H13.6667V17C15.1467 17 16.3333 15.8133 16.3333 14.3333V11.6667C16.3333 10.1867 15.1467 9 13.6667 9H8.33333ZM21.4 9L21.1333 11.6667H19V14.3333H20.8667L20.6 17H19V19.6667H20.3333L20.0667 22.3333H22.7333L23 19.6667H24.8667L24.6 22.3333H27.2667L27.5333 19.6667H29.6667V17H27.8L28.0667 14.3333H29.6667V11.6667H28.3333L28.6 9H25.9333L25.6667 11.6667H23.8L24.0667 9H21.4ZM23.5333 14.3333H25.4L25.1333 17H23.2667L23.5333 14.3333ZM3 19.6667V22.3333H5.66667V19.6667H3ZM11 19.6667V22.3333H13.6667V19.6667H11Z" fill="#C3C3C3"/>
</svg>
